<svg width="1440" height="960" viewBox="0 0 1440 960" fill="none" xmlns="http://www.w3.org/2000/svg">
  <defs>
    <linearGradient id="shieldBg" x1="190" y1="108" x2="1180" y2="852" gradientUnits="userSpaceOnUse">
      <stop stop-color="#0A0D15"/>
      <stop offset="1" stop-color="#05070C"/>
    </linearGradient>
    <radialGradient id="shieldGlow" cx="0" cy="0" r="1" gradientUnits="userSpaceOnUse" gradientTransform="translate(1038 198) rotate(120) scale(262 318)">
      <stop stop-color="#7D92FF" stop-opacity="0.62"/>
      <stop offset="1" stop-color="#7D92FF" stop-opacity="0"/>
    </radialGradient>
  </defs>
  <rect width="1440" height="960" rx="40" fill="url(#shieldBg)"/>
  <ellipse cx="1038" cy="198" rx="262" ry="318" fill="url(#shieldGlow)"/>
  <rect x="178" y="132" width="1084" height="696" rx="40" fill="#0B1019" stroke="rgba(255,255,255,0.07)" stroke-width="2"/>
  <rect x="222" y="186" width="424" height="276" rx="32" fill="rgba(255,255,255,0.04)" stroke="rgba(255,255,255,0.08)"/>
  <rect x="680" y="186" width="536" height="276" rx="32" fill="rgba(255,255,255,0.04)" stroke="rgba(255,255,255,0.08)"/>
  <rect x="222" y="496" width="312" height="280" rx="32" fill="rgba(255,255,255,0.04)" stroke="rgba(255,255,255,0.08)"/>
  <rect x="568" y="496" width="648" height="280" rx="32" fill="rgba(255,255,255,0.04)" stroke="rgba(255,255,255,0.08)"/>
  <path d="M404 246C454.81 246 496 287.19 496 338V350.639C496 413.244 451.602 467.036 390.262 478.31L388 478.72L385.738 478.31C324.398 467.036 280 413.244 280 350.639V338C280 287.19 321.19 246 372 246H404Z" fill="rgba(255,255,255,0.05)" stroke="rgba(255,255,255,0.12)" stroke-width="2"/>
  <path d="M338 358L372 392L444 320" stroke="#EEF3FF" stroke-width="18" stroke-linecap="round" stroke-linejoin="round"/>
  <rect x="732" y="236" width="186" height="16" rx="8" fill="rgba(255,255,255,0.78)"/>
  <rect x="732" y="272" width="328" height="12" rx="6" fill="rgba(255,255,255,0.26)"/>
  <rect x="732" y="308" width="384" height="12" rx="6" fill="rgba(255,255,255,0.2)"/>
  <rect x="732" y="364" width="152" height="42" rx="21" fill="rgba(125,146,255,0.18)" stroke="rgba(125,146,255,0.34)"/>
  <rect x="270" y="560" width="214" height="36" rx="18" fill="rgba(255,255,255,0.08)"/>
  <rect x="270" y="620" width="154" height="14" rx="7" fill="rgba(255,255,255,0.76)"/>
  <rect x="270" y="652" width="186" height="12" rx="6" fill="rgba(255,255,255,0.22)"/>
  <rect x="622" y="548" width="248" height="16" rx="8" fill="rgba(255,255,255,0.8)"/>
  <rect x="622" y="586" width="494" height="12" rx="6" fill="rgba(255,255,255,0.24)"/>
  <rect x="622" y="620" width="448" height="12" rx="6" fill="rgba(255,255,255,0.18)"/>
  <rect x="622" y="680" width="180" height="40" rx="20" fill="rgba(100,233,255,0.16)" stroke="rgba(100,233,255,0.34)"/>
  <text x="224" y="108" fill="rgba(255,255,255,0.78)" font-family="Avenir Next, Helvetica Neue, Arial, sans-serif" font-size="22" letter-spacing="4">JENI SHIELD</text>
</svg>
