<svg width="960" height="720" viewBox="0 0 960 720" fill="none" xmlns="http://www.w3.org/2000/svg">
  <defs>
    <linearGradient id="obg" x1="112" y1="58" x2="806" y2="656" gradientUnits="userSpaceOnUse">
      <stop offset="0" stop-color="#1A1F26"/>
      <stop offset="0.5" stop-color="#0F1318"/>
      <stop offset="1" stop-color="#080A0F"/>
    </linearGradient>
    <linearGradient id="ochrome" x1="242" y1="166" x2="690" y2="552" gradientUnits="userSpaceOnUse">
      <stop offset="0" stop-color="#F8FBFD"/>
      <stop offset="0.34" stop-color="#CDD6DE"/>
      <stop offset="0.66" stop-color="#73808D"/>
      <stop offset="1" stop-color="#EEF2F6"/>
    </linearGradient>
    <linearGradient id="olight" x1="148" y1="140" x2="604" y2="510" gradientUnits="userSpaceOnUse">
      <stop offset="0" stop-color="#9BE4FF"/>
      <stop offset="0.52" stop-color="#A3B9CF"/>
      <stop offset="1" stop-color="#C7D2DE"/>
    </linearGradient>
  </defs>
  <rect width="960" height="720" rx="40" fill="url(#obg)"/>
  <circle cx="164" cy="116" r="126" fill="#B0D0FF" fill-opacity="0.07"/>
  <circle cx="796" cy="102" r="138" fill="#D9E6F5" fill-opacity="0.05"/>
  <circle cx="748" cy="626" r="168" fill="#A3B7C9" fill-opacity="0.06"/>
  <rect x="60" y="60" width="840" height="600" rx="34" fill="#11161C" stroke="#FFFFFF" stroke-opacity="0.08"/>
  <rect x="106" y="102" width="748" height="76" rx="24" fill="#171C22" stroke="#FFFFFF" stroke-opacity="0.08"/>
  <circle cx="146" cy="140" r="16" fill="#A2E6FF" fill-opacity="0.16" stroke="#A2E6FF" stroke-opacity="0.38"/>
  <path d="M154 148L164 158" stroke="#D7F5FF" stroke-width="5" stroke-linecap="round"/>
  <rect x="180" y="128" width="206" height="22" rx="11" fill="#E7EEF5" fill-opacity="0.92"/>
  <rect x="406" y="130" width="142" height="18" rx="9" fill="#90A2B2" fill-opacity="0.34"/>
  <rect x="720" y="120" width="94" height="38" rx="19" fill="url(#ochrome)"/>

  <rect x="106" y="220" width="222" height="194" rx="28" fill="#171C22" stroke="#FFFFFF" stroke-opacity="0.08"/>
  <rect x="122" y="238" width="190" height="18" rx="9" fill="#E7EEF5" fill-opacity="0.9"/>
  <rect x="122" y="268" width="132" height="12" rx="6" fill="#90A2B2" fill-opacity="0.42"/>
  <rect x="122" y="300" width="96" height="86" rx="22" fill="#1E252D" stroke="#FFFFFF" stroke-opacity="0.06"/>
  <rect x="234" y="300" width="62" height="24" rx="12" fill="#D3DDE7" fill-opacity="0.16" stroke="#D3DDE7" stroke-opacity="0.28"/>
  <rect x="234" y="338" width="62" height="24" rx="12" fill="#D3DDE7" fill-opacity="0.12" stroke="#D3DDE7" stroke-opacity="0.24"/>
  <rect x="234" y="376" width="62" height="24" rx="12" fill="#D3DDE7" fill-opacity="0.08" stroke="#D3DDE7" stroke-opacity="0.18"/>
  <path d="M152 335H188" stroke="url(#olight)" stroke-width="10" stroke-linecap="round"/>
  <path d="M152 356H176" stroke="#B3C2CF" stroke-width="8" stroke-linecap="round" opacity="0.7"/>

  <rect x="370" y="220" width="222" height="194" rx="28" fill="#171C22" stroke="#FFFFFF" stroke-opacity="0.08"/>
  <rect x="386" y="238" width="176" height="18" rx="9" fill="#E7EEF5" fill-opacity="0.9"/>
  <rect x="386" y="268" width="118" height="12" rx="6" fill="#90A2B2" fill-opacity="0.42"/>
  <rect x="386" y="304" width="188" height="40" rx="18" fill="#212831" stroke="#FFFFFF" stroke-opacity="0.06"/>
  <rect x="386" y="356" width="188" height="40" rx="18" fill="#212831" stroke="#FFFFFF" stroke-opacity="0.06"/>
  <circle cx="420" cy="324" r="12" fill="#D8E2EA" fill-opacity="0.12" stroke="#D8E2EA" stroke-opacity="0.28"/>
  <circle cx="420" cy="376" r="12" fill="#D8E2EA" fill-opacity="0.12" stroke="#D8E2EA" stroke-opacity="0.28"/>
  <path d="M413 324L418 329L428 318" stroke="#DFF5FF" stroke-width="4" stroke-linecap="round" stroke-linejoin="round"/>
  <path d="M413 376L418 381L428 370" stroke="#DFF5FF" stroke-width="4" stroke-linecap="round" stroke-linejoin="round"/>
  <path d="M454 324H536" stroke="url(#olight)" stroke-width="8" stroke-linecap="round"/>
  <path d="M454 376H514" stroke="#B3C2CF" stroke-width="8" stroke-linecap="round" opacity="0.78"/>

  <rect x="634" y="220" width="220" height="194" rx="28" fill="#171C22" stroke="#FFFFFF" stroke-opacity="0.08"/>
  <rect x="650" y="238" width="168" height="18" rx="9" fill="#E7EEF5" fill-opacity="0.9"/>
  <rect x="650" y="268" width="110" height="12" rx="6" fill="#90A2B2" fill-opacity="0.42"/>
  <rect x="650" y="304" width="168" height="96" rx="24" fill="#1E252D" stroke="#FFFFFF" stroke-opacity="0.06"/>
  <path d="M676 372L714 336L752 350L792 314" stroke="url(#olight)" stroke-width="10" stroke-linecap="round" stroke-linejoin="round"/>
  <circle cx="792" cy="314" r="8" fill="#DFF3FF"/>

  <path d="M332 318H362" stroke="url(#ochrome)" stroke-width="10" stroke-linecap="round"/>
  <path d="M594 318H624" stroke="url(#ochrome)" stroke-width="10" stroke-linecap="round"/>
  <path d="M350 302L366 318L350 334" stroke="url(#ochrome)" stroke-width="6" stroke-linecap="round" stroke-linejoin="round"/>
  <path d="M612 302L628 318L612 334" stroke="url(#ochrome)" stroke-width="6" stroke-linecap="round" stroke-linejoin="round"/>

  <rect x="204" y="466" width="552" height="118" rx="28" fill="#14191F" stroke="#FFFFFF" stroke-opacity="0.06"/>
  <rect x="236" y="500" width="104" height="16" rx="8" fill="#E7EEF5" fill-opacity="0.9"/>
  <rect x="236" y="528" width="146" height="10" rx="5" fill="#90A2B2" fill-opacity="0.42"/>
  <rect x="466" y="496" width="116" height="24" rx="12" fill="#D8E2EA" fill-opacity="0.12" stroke="#D8E2EA" stroke-opacity="0.28"/>
  <rect x="466" y="530" width="156" height="24" rx="12" fill="#D8E2EA" fill-opacity="0.1" stroke="#D8E2EA" stroke-opacity="0.24"/>
</svg>
